<svg width="61" height="60" viewBox="0 0 61 60" fill="none" xmlns="http://www.w3.org/2000/svg">
<path d="M53.8954 22.6004L53.858 22.5643C53.855 22.5623 53.8526 22.5596 53.8511 22.5565L30.501 0L7.15114 22.5559C7.14845 22.5585 7.14695 22.562 7.14423 22.5637L7.1057 22.5998C3.53519 26.0682 1.26729 30.5901 0.662545 35.4466C0.0577993 40.3031 1.15091 45.2155 3.7681 49.403C6.3853 53.5906 10.3764 56.8129 15.1069 58.5575C19.8374 60.302 25.0359 60.4692 29.8759 59.0319C30.2832 58.9116 30.7185 58.9116 31.1259 59.0319C35.9655 60.4686 41.1637 60.3014 45.8939 58.5566C50.6242 56.8117 54.6148 53.5897 57.2318 49.4025C59.8488 45.2152 60.9421 40.3031 60.3376 35.4469C59.7331 30.5906 57.4655 26.0688 53.8954 22.6004ZM15.454 37.4745C15.3404 37.5843 15.2502 37.7148 15.1888 37.8581C15.1273 38.0014 15.0956 38.1552 15.0956 38.3104C15.1372 42.2914 16.3019 46.1859 18.4643 49.5752C18.5135 49.6521 18.5362 49.7421 18.5292 49.832C18.5222 49.922 18.486 50.0077 18.4255 50.0767C18.3652 50.1457 18.2837 50.1944 18.1929 50.2159C18.1021 50.2375 18.0065 50.2308 17.92 50.1967C16.2943 49.5361 14.8174 48.5759 13.572 47.3699C11.0197 44.9039 9.58478 41.5601 9.58246 38.073C9.58014 34.5859 11.0106 31.2404 13.5596 28.7714L30.501 12.4078L47.4415 28.7714C49.991 31.2401 51.4219 34.5857 51.4195 38.073C51.4174 41.5601 49.9823 44.9039 47.4298 47.3699C46.1843 48.5759 44.7075 49.5361 43.0821 50.1967C42.9953 50.2308 42.8997 50.2375 42.809 50.2159C42.7182 50.1944 42.6368 50.1454 42.5762 50.0767C42.5159 50.0077 42.4794 49.922 42.4725 49.8318C42.4656 49.7418 42.4882 49.6518 42.5373 49.5749C44.7003 46.1859 45.8656 42.2914 45.9078 38.3104C45.9078 38.1552 45.8758 38.0014 45.814 37.8578C45.7522 37.7142 45.6618 37.584 45.5478 37.4742L37.5348 29.264C37.4549 29.1997 37.3545 29.1644 37.2505 29.1644C37.1468 29.1644 37.0461 29.1997 36.9665 29.264C36.8866 29.3281 36.833 29.4175 36.8143 29.5162C36.7956 29.615 36.8134 29.7166 36.8646 29.804C39.9767 35.2442 37.3006 43.0583 32.8378 47.3699L32.8143 47.3926C32.1983 47.9812 31.3668 48.3112 30.5004 48.3109C29.6339 48.3106 28.8026 47.98 28.1871 47.3911L28.1654 47.3699C23.701 43.0583 21.0263 35.245 24.1388 29.8052C24.19 29.7178 24.2079 29.6161 24.1892 29.5174C24.1706 29.4187 24.1167 29.3293 24.037 29.2652C23.9572 29.2008 23.8567 29.1656 23.7528 29.1656C23.649 29.1656 23.5484 29.2008 23.4686 29.2652L15.454 37.4745Z" fill="#8DC27D"/>
</svg>
