<svg width="118" height="36" viewBox="0 0 118 36" fill="none" xmlns="http://www.w3.org/2000/svg">
<path d="M2.06 17V3H7.34C8.3 3 9.17333 3.17333 9.96 3.52C10.76 3.85333 11.4533 4.33333 12.04 4.96C12.6267 5.58667 13.08 6.32667 13.4 7.18C13.72 8.03333 13.88 8.97333 13.88 10C13.88 11.0267 13.72 11.9733 13.4 12.84C13.08 13.6933 12.6267 14.4333 12.04 15.06C11.4667 15.6733 10.78 16.1533 9.98 16.5C9.18 16.8333 8.3 17 7.34 17H2.06ZM3.62 15.76L3.44 15.48H7.24C7.97333 15.48 8.64667 15.3533 9.26 15.1C9.88667 14.8333 10.42 14.46 10.86 13.98C11.3133 13.4867 11.66 12.9067 11.9 12.24C12.1533 11.5733 12.28 10.8267 12.28 10C12.28 9.17333 12.1533 8.42667 11.9 7.76C11.66 7.09333 11.3133 6.52 10.86 6.04C10.4067 5.54667 9.87333 5.17333 9.26 4.92C8.64667 4.65333 7.97333 4.52 7.24 4.52H3.38L3.62 4.28V15.76ZM18.5233 17V3H20.0833V15.48H26.8033V17H18.5233ZM36.4408 17.14C35.3874 17.14 34.4474 16.9067 33.6208 16.44C32.7941 15.96 32.1408 15.3067 31.6608 14.48C31.1941 13.64 30.9608 12.6933 30.9608 11.64V3H32.5208V11.46C32.5208 12.2467 32.6941 12.9533 33.0408 13.58C33.3874 14.2067 33.8541 14.7 34.4408 15.06C35.0408 15.42 35.7074 15.6 36.4408 15.6C37.2141 15.6 37.9008 15.42 38.5008 15.06C39.1141 14.7 39.5941 14.2067 39.9408 13.58C40.2874 12.9533 40.4608 12.2467 40.4608 11.46V3H41.9608V11.64C41.9608 12.6933 41.7208 13.64 41.2408 14.48C40.7741 15.3067 40.1208 15.96 39.2808 16.44C38.4541 16.9067 37.5074 17.14 36.4408 17.14ZM7.86 35.2C6.86 35.2 5.94 35.0267 5.1 34.68C4.26 34.32 3.53333 33.82 2.92 33.18C2.30667 32.5267 1.82667 31.76 1.48 30.88C1.14667 30 0.98 29.04 0.98 28C0.98 26.9733 1.14667 26.0333 1.48 25.18C1.82667 24.3133 2.31333 23.56 2.94 22.92C3.56667 22.2667 4.29333 21.7667 5.12 21.42C5.94667 21.0733 6.85333 20.9 7.84 20.9C8.49333 20.9 9.14 21.0067 9.78 21.22C10.42 21.42 11.0067 21.7 11.54 22.06C12.0867 22.42 12.5333 22.8333 12.88 23.3L11.8 24.42C11.4667 24.02 11.08 23.6733 10.64 23.38C10.2133 23.0867 9.76 22.86 9.28 22.7C8.8 22.54 8.32 22.46 7.84 22.46C7.09333 22.46 6.39333 22.6 5.74 22.88C5.1 23.1467 4.54667 23.5267 4.08 24.02C3.61333 24.5133 3.24667 25.1 2.98 25.78C2.72667 26.46 2.6 27.2 2.6 28C2.6 28.8267 2.72667 29.5867 2.98 30.28C3.24667 30.9733 3.62 31.5733 4.1 32.08C4.59333 32.5733 5.16667 32.96 5.82 33.24C6.48667 33.5067 7.22667 33.64 8.04 33.64C8.52 33.64 9 33.5733 9.48 33.44C9.96 33.2933 10.4 33.0933 10.8 32.84C11.2 32.5867 11.54 32.3 11.82 31.98L12.62 33.28C12.3133 33.6533 11.9 33.9867 11.38 34.28C10.8733 34.56 10.3133 34.7867 9.7 34.96C9.08667 35.12 8.47333 35.2 7.86 35.2ZM21.1956 35.2C20.1556 35.2 19.229 34.9667 18.4156 34.5C17.6156 34.0333 16.9823 33.3867 16.5156 32.56C16.0623 31.7333 15.8356 30.7933 15.8356 29.74C15.8356 28.7 16.0623 27.7733 16.5156 26.96C16.9823 26.1467 17.6156 25.5067 18.4156 25.04C19.229 24.5733 20.1556 24.34 21.1956 24.34C22.2223 24.34 23.1356 24.5733 23.9356 25.04C24.749 25.5067 25.3823 26.1467 25.8356 26.96C26.3023 27.7733 26.5356 28.7 26.5356 29.74C26.5356 30.7933 26.3023 31.7333 25.8356 32.56C25.3823 33.3867 24.749 34.0333 23.9356 34.5C23.1356 34.9667 22.2223 35.2 21.1956 35.2ZM21.1956 33.78C21.929 33.78 22.5823 33.6067 23.1556 33.26C23.729 32.9 24.1756 32.42 24.4956 31.82C24.8156 31.2067 24.9756 30.5133 24.9756 29.74C24.9756 28.9667 24.8156 28.28 24.4956 27.68C24.1756 27.08 23.729 26.6133 23.1556 26.28C22.5823 25.9333 21.929 25.76 21.1956 25.76C20.4623 25.76 19.8023 25.9333 19.2156 26.28C18.6423 26.6133 18.189 27.0867 17.8556 27.7C17.5356 28.3 17.3823 28.98 17.3956 29.74C17.3823 30.5133 17.5356 31.2067 17.8556 31.82C18.189 32.42 18.6423 32.9 19.2156 33.26C19.8023 33.6067 20.4623 33.78 21.1956 33.78ZM30.3241 35V24.56H31.8041L31.8641 26.74L31.6241 26.84C31.7574 26.3867 32.0174 25.9733 32.4041 25.6C32.7907 25.2267 33.2507 24.9267 33.7841 24.7C34.3307 24.46 34.8907 24.34 35.4641 24.34C36.2374 24.34 36.8841 24.4933 37.4041 24.8C37.9241 25.1067 38.3174 25.58 38.5841 26.22C38.8507 26.86 38.9841 27.6733 38.9841 28.66V35H37.4641V28.74C37.4641 28.0467 37.3707 27.48 37.1841 27.04C37.0107 26.5867 36.7374 26.2533 36.3641 26.04C35.9907 25.8267 35.5307 25.7267 34.9841 25.74C34.5307 25.74 34.1107 25.82 33.7241 25.98C33.3374 26.1267 33.0041 26.3333 32.7241 26.6C32.4441 26.8667 32.2241 27.1733 32.0641 27.52C31.9041 27.8667 31.8241 28.24 31.8241 28.64V35H31.0841C30.9907 35 30.8841 35 30.7641 35C30.6441 35 30.4974 35 30.3241 35ZM44.6475 35V22.94C44.6475 22.42 44.7608 21.96 44.9875 21.56C45.2142 21.16 45.5342 20.8467 45.9475 20.62C46.3742 20.38 46.8675 20.26 47.4275 20.26C47.8542 20.26 48.2342 20.34 48.5675 20.5C48.9142 20.6467 49.2008 20.8533 49.4275 21.12L48.9075 22.3C48.6942 22.0733 48.4608 21.9133 48.2075 21.82C47.9675 21.7133 47.7342 21.66 47.5075 21.66C47.2142 21.66 46.9675 21.7133 46.7675 21.82C46.5675 21.9133 46.4142 22.06 46.3075 22.26C46.2142 22.4467 46.1675 22.6733 46.1675 22.94V35H45.4675C45.3208 35 45.1808 35 45.0475 35C44.9142 35 44.7808 35 44.6475 35ZM42.7875 26.04V24.64H48.8275V26.04H42.7875ZM56.8155 35.2C55.7755 35.2 54.8488 34.9733 54.0355 34.52C53.2355 34.0667 52.6088 33.4333 52.1555 32.62C51.7021 31.8067 51.4755 30.8733 51.4755 29.82C51.4755 29.0067 51.6021 28.2733 51.8555 27.62C52.1088 26.9533 52.4621 26.3733 52.9155 25.88C53.3821 25.3867 53.9355 25.0067 54.5755 24.74C55.2155 24.46 55.9088 24.32 56.6555 24.32C57.3621 24.32 58.0021 24.4467 58.5755 24.7C59.1621 24.9533 59.6621 25.3067 60.0755 25.76C60.5021 26.2 60.8221 26.7267 61.0355 27.34C61.2488 27.9533 61.3421 28.6267 61.3155 29.36L61.2955 30.06H52.5955L52.3755 28.8H60.1555L59.7955 29.14V28.66C59.7688 28.18 59.6288 27.72 59.3755 27.28C59.1221 26.8267 58.7621 26.46 58.2955 26.18C57.8421 25.9 57.2955 25.76 56.6555 25.76C55.9088 25.76 55.2621 25.9133 54.7155 26.22C54.1688 26.5133 53.7488 26.9533 53.4555 27.54C53.1621 28.1267 53.0155 28.8533 53.0155 29.72C53.0155 30.5467 53.1755 31.2667 53.4955 31.88C53.8155 32.48 54.2688 32.9467 54.8555 33.28C55.4555 33.6133 56.1755 33.78 57.0155 33.78C57.5088 33.78 57.9955 33.7 58.4755 33.54C58.9688 33.3667 59.5088 33.0333 60.0955 32.54L60.8755 33.62C60.5688 33.9267 60.2021 34.2 59.7755 34.44C59.3488 34.6667 58.8821 34.8533 58.3755 35C57.8688 35.1333 57.3488 35.2 56.8155 35.2ZM68.4659 35.2C67.5726 35.2 66.7726 35.0333 66.0659 34.7C65.3593 34.3667 64.7993 33.9267 64.3859 33.38L65.4459 32.46C65.8326 32.9267 66.2859 33.28 66.8059 33.52C67.3393 33.76 67.9326 33.88 68.5859 33.88C68.9193 33.88 69.2193 33.8467 69.4859 33.78C69.7526 33.7 69.9859 33.5867 70.1859 33.44C70.3859 33.2933 70.5393 33.12 70.6459 32.92C70.7526 32.72 70.8059 32.5 70.8059 32.26C70.8059 31.82 70.6126 31.4533 70.2259 31.16C70.0526 31.04 69.8059 30.92 69.4859 30.8C69.1659 30.6667 68.7793 30.54 68.3259 30.42C67.5793 30.2067 66.9593 29.9933 66.4659 29.78C65.9726 29.5533 65.5859 29.2933 65.3059 29C65.1059 28.76 64.9526 28.5 64.8459 28.22C64.7526 27.94 64.7059 27.6333 64.7059 27.3C64.7059 26.8733 64.7926 26.48 64.9659 26.12C65.1526 25.76 65.4059 25.4467 65.7259 25.18C66.0593 24.9 66.4459 24.6933 66.8859 24.56C67.3393 24.4133 67.8259 24.34 68.3459 24.34C68.8393 24.34 69.3259 24.4067 69.8059 24.54C70.2859 24.6733 70.7326 24.8667 71.1459 25.12C71.5593 25.3733 71.9126 25.6733 72.2059 26.02L71.2859 27.02C71.0326 26.7533 70.7526 26.5133 70.4459 26.3C70.1393 26.0867 69.8126 25.92 69.4659 25.8C69.1326 25.68 68.7859 25.62 68.4259 25.62C68.1059 25.62 67.8059 25.66 67.5259 25.74C67.2593 25.82 67.0259 25.9333 66.8259 26.08C66.6393 26.2133 66.4926 26.38 66.3859 26.58C66.2926 26.78 66.2459 27 66.2459 27.24C66.2459 27.44 66.2859 27.62 66.3659 27.78C66.4459 27.94 66.5593 28.08 66.7059 28.2C66.8926 28.3467 67.1526 28.4867 67.4859 28.62C67.8326 28.74 68.2593 28.8667 68.7659 29C69.3526 29.16 69.8459 29.3267 70.2459 29.5C70.6593 29.66 70.9993 29.8533 71.2659 30.08C71.6259 30.3467 71.8793 30.6533 72.0259 31C72.1859 31.3467 72.2659 31.74 72.2659 32.18C72.2659 32.7667 72.0993 33.2867 71.7659 33.74C71.4459 34.1933 70.9993 34.5533 70.4259 34.82C69.8526 35.0733 69.1993 35.2 68.4659 35.2ZM79.6362 35.2C78.7429 35.2 77.9429 35.0333 77.2362 34.7C76.5296 34.3667 75.9696 33.9267 75.5562 33.38L76.6162 32.46C77.0029 32.9267 77.4562 33.28 77.9762 33.52C78.5096 33.76 79.1029 33.88 79.7562 33.88C80.0896 33.88 80.3896 33.8467 80.6562 33.78C80.9229 33.7 81.1562 33.5867 81.3562 33.44C81.5562 33.2933 81.7096 33.12 81.8162 32.92C81.9229 32.72 81.9762 32.5 81.9762 32.26C81.9762 31.82 81.7829 31.4533 81.3962 31.16C81.2229 31.04 80.9762 30.92 80.6562 30.8C80.3362 30.6667 79.9496 30.54 79.4962 30.42C78.7496 30.2067 78.1296 29.9933 77.6362 29.78C77.1429 29.5533 76.7562 29.2933 76.4762 29C76.2762 28.76 76.1229 28.5 76.0162 28.22C75.9229 27.94 75.8762 27.6333 75.8762 27.3C75.8762 26.8733 75.9629 26.48 76.1362 26.12C76.3229 25.76 76.5762 25.4467 76.8962 25.18C77.2296 24.9 77.6162 24.6933 78.0562 24.56C78.5096 24.4133 78.9962 24.34 79.5162 24.34C80.0096 24.34 80.4962 24.4067 80.9762 24.54C81.4562 24.6733 81.9029 24.8667 82.3162 25.12C82.7296 25.3733 83.0829 25.6733 83.3762 26.02L82.4562 27.02C82.2029 26.7533 81.9229 26.5133 81.6162 26.3C81.3096 26.0867 80.9829 25.92 80.6362 25.8C80.3029 25.68 79.9562 25.62 79.5962 25.62C79.2762 25.62 78.9762 25.66 78.6962 25.74C78.4296 25.82 78.1962 25.9333 77.9962 26.08C77.8096 26.2133 77.6629 26.38 77.5562 26.58C77.4629 26.78 77.4162 27 77.4162 27.24C77.4162 27.44 77.4562 27.62 77.5362 27.78C77.6162 27.94 77.7296 28.08 77.8762 28.2C78.0629 28.3467 78.3229 28.4867 78.6562 28.62C79.0029 28.74 79.4296 28.8667 79.9362 29C80.5229 29.16 81.0162 29.3267 81.4162 29.5C81.8296 29.66 82.1696 29.8533 82.4362 30.08C82.7962 30.3467 83.0496 30.6533 83.1962 31C83.3562 31.3467 83.4362 31.74 83.4362 32.18C83.4362 32.7667 83.2696 33.2867 82.9362 33.74C82.6162 34.1933 82.1696 34.5533 81.5962 34.82C81.0229 35.0733 80.3696 35.2 79.6362 35.2ZM87.7866 35V24.56H89.2866V35H87.7866ZM88.5266 22.3C88.1532 22.3 87.8666 22.2067 87.6666 22.02C87.4799 21.82 87.3866 21.5533 87.3866 21.22C87.3866 20.8867 87.4866 20.62 87.6866 20.42C87.8866 20.22 88.1666 20.12 88.5266 20.12C88.8866 20.12 89.1666 20.22 89.3666 20.42C89.5666 20.6067 89.6666 20.8733 89.6666 21.22C89.6666 21.54 89.5666 21.8 89.3666 22C89.1666 22.2 88.8866 22.3 88.5266 22.3ZM98.7823 35.2C97.7423 35.2 96.8157 34.9667 96.0023 34.5C95.2023 34.0333 94.569 33.3867 94.1023 32.56C93.649 31.7333 93.4223 30.7933 93.4223 29.74C93.4223 28.7 93.649 27.7733 94.1023 26.96C94.569 26.1467 95.2023 25.5067 96.0023 25.04C96.8157 24.5733 97.7423 24.34 98.7823 24.34C99.809 24.34 100.722 24.5733 101.522 25.04C102.336 25.5067 102.969 26.1467 103.422 26.96C103.889 27.7733 104.122 28.7 104.122 29.74C104.122 30.7933 103.889 31.7333 103.422 32.56C102.969 33.3867 102.336 34.0333 101.522 34.5C100.722 34.9667 99.809 35.2 98.7823 35.2ZM98.7823 33.78C99.5157 33.78 100.169 33.6067 100.742 33.26C101.316 32.9 101.762 32.42 102.082 31.82C102.402 31.2067 102.562 30.5133 102.562 29.74C102.562 28.9667 102.402 28.28 102.082 27.68C101.762 27.08 101.316 26.6133 100.742 26.28C100.169 25.9333 99.5157 25.76 98.7823 25.76C98.049 25.76 97.389 25.9333 96.8023 26.28C96.229 26.6133 95.7757 27.0867 95.4423 27.7C95.1223 28.3 94.969 28.98 94.9823 29.74C94.969 30.5133 95.1223 31.2067 95.4423 31.82C95.7757 32.42 96.229 32.9 96.8023 33.26C97.389 33.6067 98.049 33.78 98.7823 33.78ZM107.911 35V24.56H109.391L109.451 26.74L109.211 26.84C109.344 26.3867 109.604 25.9733 109.991 25.6C110.377 25.2267 110.837 24.9267 111.371 24.7C111.917 24.46 112.477 24.34 113.051 24.34C113.824 24.34 114.471 24.4933 114.991 24.8C115.511 25.1067 115.904 25.58 116.171 26.22C116.437 26.86 116.571 27.6733 116.571 28.66V35H115.051V28.74C115.051 28.0467 114.957 27.48 114.771 27.04C114.597 26.5867 114.324 26.2533 113.951 26.04C113.577 25.8267 113.117 25.7267 112.571 25.74C112.117 25.74 111.697 25.82 111.311 25.98C110.924 26.1267 110.591 26.3333 110.311 26.6C110.031 26.8667 109.811 27.1733 109.651 27.52C109.491 27.8667 109.411 28.24 109.411 28.64V35H108.671C108.577 35 108.471 35 108.351 35C108.231 35 108.084 35 107.911 35Z" fill="#8DC27D"/>
</svg>
