<svg width="166" height="36" viewBox="0 0 166 36" fill="none" xmlns="http://www.w3.org/2000/svg">
<path d="M32.0373 13.5602L32.0148 13.5386C32.013 13.5374 32.0116 13.5358 32.0107 13.5339L18.0006 0L3.99068 13.5335C3.98907 13.5351 3.98817 13.5372 3.98654 13.5382L3.96342 13.5599C1.82111 15.6409 0.460374 18.354 0.0975268 21.2679C-0.26532 24.1819 0.390547 27.1293 1.96086 29.6418C3.53118 32.1543 5.92582 34.0877 8.76414 35.1345C11.6024 36.1812 14.7215 36.2815 17.6256 35.4191C17.8699 35.347 18.1311 35.347 18.3755 35.4191C21.2793 36.2812 24.3982 36.1809 27.2364 35.134C30.0745 34.087 32.4689 32.1538 34.0391 29.6415C35.6093 27.1291 36.2652 24.1819 35.9025 21.2681C35.5398 18.3544 34.1793 15.6413 32.0373 13.5602ZM8.97243 22.4847C8.90423 22.5506 8.85014 22.6289 8.81326 22.7149C8.77635 22.8008 8.75736 22.8931 8.75738 22.9862C8.7823 25.3748 9.48112 27.7116 10.7786 29.7451C10.8081 29.7912 10.8217 29.8452 10.8175 29.8992C10.8133 29.9532 10.7916 30.0046 10.7553 30.046C10.7191 30.0874 10.6702 30.1166 10.6157 30.1295C10.5613 30.1425 10.5039 30.1385 10.452 30.118C9.47656 29.7217 8.59044 29.1455 7.84318 28.4219C6.31179 26.9423 5.45087 24.9361 5.44948 22.8438C5.44808 20.7516 6.30635 18.7442 7.83578 17.2629L18.0006 7.44468L28.1649 17.2629C29.6946 18.7441 30.5532 20.7514 30.5517 22.8438C30.5504 24.9361 29.6894 26.9423 28.1579 28.4219C27.4106 29.1455 26.5245 29.7217 25.5493 30.118C25.4972 30.1385 25.4398 30.1425 25.3854 30.1295C25.3309 30.1166 25.2821 30.0873 25.2457 30.046C25.2096 30.0046 25.1877 29.9532 25.1835 29.8991C25.1793 29.8451 25.1929 29.7911 25.2224 29.7449C26.5202 27.7116 27.2193 25.3748 27.2447 22.9862C27.2447 22.8931 27.2255 22.8008 27.1884 22.7147C27.1513 22.6285 27.0971 22.5504 27.0287 22.4845L22.2209 17.5584C22.173 17.5198 22.1127 17.4986 22.0503 17.4986C21.9881 17.4986 21.9277 17.5198 21.8799 17.5584C21.832 17.5969 21.7998 17.6505 21.7886 17.7097C21.7773 17.769 21.788 17.83 21.8188 17.8824C23.686 21.1465 22.0803 25.835 19.4027 28.4219L19.3886 28.4355C19.019 28.7887 18.5201 28.9867 18.0002 28.9865C17.4804 28.9863 16.9816 28.788 16.6122 28.4347L16.5992 28.4219C13.9206 25.835 12.3158 21.147 14.1833 17.8831C14.214 17.8307 14.2247 17.7697 14.2135 17.7104C14.2024 17.6512 14.17 17.5976 14.1222 17.5591C14.0743 17.5205 14.014 17.4993 13.9517 17.4993C13.8894 17.4993 13.829 17.5205 13.7812 17.5591L8.97243 22.4847Z" fill="#8DC27D"/>
<path d="M50.06 17V3H55.34C56.3 3 57.1733 3.17333 57.96 3.52C58.76 3.85333 59.4533 4.33333 60.04 4.96C60.6267 5.58667 61.08 6.32667 61.4 7.18C61.72 8.03333 61.88 8.97333 61.88 10C61.88 11.0267 61.72 11.9733 61.4 12.84C61.08 13.6933 60.6267 14.4333 60.04 15.06C59.4667 15.6733 58.78 16.1533 57.98 16.5C57.18 16.8333 56.3 17 55.34 17H50.06ZM51.62 15.76L51.44 15.48H55.24C55.9733 15.48 56.6467 15.3533 57.26 15.1C57.8867 14.8333 58.42 14.46 58.86 13.98C59.3133 13.4867 59.66 12.9067 59.9 12.24C60.1533 11.5733 60.28 10.8267 60.28 10C60.28 9.17333 60.1533 8.42667 59.9 7.76C59.66 7.09333 59.3133 6.52 58.86 6.04C58.4067 5.54667 57.8733 5.17333 57.26 4.92C56.6467 4.65333 55.9733 4.52 55.24 4.52H51.38L51.62 4.28V15.76ZM66.5233 17V3H68.0833V15.48H74.8033V17H66.5233ZM84.4408 17.14C83.3874 17.14 82.4474 16.9067 81.6208 16.44C80.7941 15.96 80.1408 15.3067 79.6608 14.48C79.1941 13.64 78.9608 12.6933 78.9608 11.64V3H80.5208V11.46C80.5208 12.2467 80.6941 12.9533 81.0408 13.58C81.3874 14.2067 81.8541 14.7 82.4408 15.06C83.0408 15.42 83.7074 15.6 84.4408 15.6C85.2141 15.6 85.9008 15.42 86.5008 15.06C87.1141 14.7 87.5941 14.2067 87.9408 13.58C88.2874 12.9533 88.4608 12.2467 88.4608 11.46V3H89.9608V11.64C89.9608 12.6933 89.7208 13.64 89.2408 14.48C88.7741 15.3067 88.1208 15.96 87.2808 16.44C86.4541 16.9067 85.5074 17.14 84.4408 17.14ZM55.86 35.2C54.86 35.2 53.94 35.0267 53.1 34.68C52.26 34.32 51.5333 33.82 50.92 33.18C50.3067 32.5267 49.8267 31.76 49.48 30.88C49.1467 30 48.98 29.04 48.98 28C48.98 26.9733 49.1467 26.0333 49.48 25.18C49.8267 24.3133 50.3133 23.56 50.94 22.92C51.5667 22.2667 52.2933 21.7667 53.12 21.42C53.9467 21.0733 54.8533 20.9 55.84 20.9C56.4933 20.9 57.14 21.0067 57.78 21.22C58.42 21.42 59.0067 21.7 59.54 22.06C60.0867 22.42 60.5333 22.8333 60.88 23.3L59.8 24.42C59.4667 24.02 59.08 23.6733 58.64 23.38C58.2133 23.0867 57.76 22.86 57.28 22.7C56.8 22.54 56.32 22.46 55.84 22.46C55.0933 22.46 54.3933 22.6 53.74 22.88C53.1 23.1467 52.5467 23.5267 52.08 24.02C51.6133 24.5133 51.2467 25.1 50.98 25.78C50.7267 26.46 50.6 27.2 50.6 28C50.6 28.8267 50.7267 29.5867 50.98 30.28C51.2467 30.9733 51.62 31.5733 52.1 32.08C52.5933 32.5733 53.1667 32.96 53.82 33.24C54.4867 33.5067 55.2267 33.64 56.04 33.64C56.52 33.64 57 33.5733 57.48 33.44C57.96 33.2933 58.4 33.0933 58.8 32.84C59.2 32.5867 59.54 32.3 59.82 31.98L60.62 33.28C60.3133 33.6533 59.9 33.9867 59.38 34.28C58.8733 34.56 58.3133 34.7867 57.7 34.96C57.0867 35.12 56.4733 35.2 55.86 35.2ZM69.1956 35.2C68.1556 35.2 67.229 34.9667 66.4156 34.5C65.6156 34.0333 64.9823 33.3867 64.5156 32.56C64.0623 31.7333 63.8356 30.7933 63.8356 29.74C63.8356 28.7 64.0623 27.7733 64.5156 26.96C64.9823 26.1467 65.6156 25.5067 66.4156 25.04C67.229 24.5733 68.1556 24.34 69.1956 24.34C70.2223 24.34 71.1356 24.5733 71.9356 25.04C72.749 25.5067 73.3823 26.1467 73.8356 26.96C74.3023 27.7733 74.5356 28.7 74.5356 29.74C74.5356 30.7933 74.3023 31.7333 73.8356 32.56C73.3823 33.3867 72.749 34.0333 71.9356 34.5C71.1356 34.9667 70.2223 35.2 69.1956 35.2ZM69.1956 33.78C69.929 33.78 70.5823 33.6067 71.1556 33.26C71.729 32.9 72.1756 32.42 72.4956 31.82C72.8156 31.2067 72.9756 30.5133 72.9756 29.74C72.9756 28.9667 72.8156 28.28 72.4956 27.68C72.1756 27.08 71.729 26.6133 71.1556 26.28C70.5823 25.9333 69.929 25.76 69.1956 25.76C68.4623 25.76 67.8023 25.9333 67.2156 26.28C66.6423 26.6133 66.189 27.0867 65.8556 27.7C65.5356 28.3 65.3823 28.98 65.3956 29.74C65.3823 30.5133 65.5356 31.2067 65.8556 31.82C66.189 32.42 66.6423 32.9 67.2156 33.26C67.8023 33.6067 68.4623 33.78 69.1956 33.78ZM78.3241 35V24.56H79.8041L79.8641 26.74L79.6241 26.84C79.7574 26.3867 80.0174 25.9733 80.4041 25.6C80.7907 25.2267 81.2507 24.9267 81.7841 24.7C82.3307 24.46 82.8907 24.34 83.4641 24.34C84.2374 24.34 84.8841 24.4933 85.4041 24.8C85.9241 25.1067 86.3174 25.58 86.5841 26.22C86.8507 26.86 86.9841 27.6733 86.9841 28.66V35H85.4641V28.74C85.4641 28.0467 85.3707 27.48 85.1841 27.04C85.0107 26.5867 84.7374 26.2533 84.3641 26.04C83.9907 25.8267 83.5307 25.7267 82.9841 25.74C82.5307 25.74 82.1107 25.82 81.7241 25.98C81.3374 26.1267 81.0041 26.3333 80.7241 26.6C80.4441 26.8667 80.2241 27.1733 80.0641 27.52C79.9041 27.8667 79.8241 28.24 79.8241 28.64V35H79.0841C78.9907 35 78.8841 35 78.7641 35C78.6441 35 78.4974 35 78.3241 35ZM92.6475 35V22.94C92.6475 22.42 92.7608 21.96 92.9875 21.56C93.2142 21.16 93.5342 20.8467 93.9475 20.62C94.3742 20.38 94.8675 20.26 95.4275 20.26C95.8542 20.26 96.2342 20.34 96.5675 20.5C96.9142 20.6467 97.2008 20.8533 97.4275 21.12L96.9075 22.3C96.6942 22.0733 96.4608 21.9133 96.2075 21.82C95.9675 21.7133 95.7342 21.66 95.5075 21.66C95.2142 21.66 94.9675 21.7133 94.7675 21.82C94.5675 21.9133 94.4142 22.06 94.3075 22.26C94.2142 22.4467 94.1675 22.6733 94.1675 22.94V35H93.4675C93.3208 35 93.1808 35 93.0475 35C92.9142 35 92.7808 35 92.6475 35ZM90.7875 26.04V24.64H96.8275V26.04H90.7875ZM104.815 35.2C103.775 35.2 102.849 34.9733 102.035 34.52C101.235 34.0667 100.609 33.4333 100.155 32.62C99.7021 31.8067 99.4755 30.8733 99.4755 29.82C99.4755 29.0067 99.6021 28.2733 99.8555 27.62C100.109 26.9533 100.462 26.3733 100.915 25.88C101.382 25.3867 101.935 25.0067 102.575 24.74C103.215 24.46 103.909 24.32 104.655 24.32C105.362 24.32 106.002 24.4467 106.575 24.7C107.162 24.9533 107.662 25.3067 108.075 25.76C108.502 26.2 108.822 26.7267 109.035 27.34C109.249 27.9533 109.342 28.6267 109.315 29.36L109.295 30.06H100.595L100.375 28.8H108.155L107.795 29.14V28.66C107.769 28.18 107.629 27.72 107.375 27.28C107.122 26.8267 106.762 26.46 106.295 26.18C105.842 25.9 105.295 25.76 104.655 25.76C103.909 25.76 103.262 25.9133 102.715 26.22C102.169 26.5133 101.749 26.9533 101.455 27.54C101.162 28.1267 101.015 28.8533 101.015 29.72C101.015 30.5467 101.175 31.2667 101.495 31.88C101.815 32.48 102.269 32.9467 102.855 33.28C103.455 33.6133 104.175 33.78 105.015 33.78C105.509 33.78 105.995 33.7 106.475 33.54C106.969 33.3667 107.509 33.0333 108.095 32.54L108.875 33.62C108.569 33.9267 108.202 34.2 107.775 34.44C107.349 34.6667 106.882 34.8533 106.375 35C105.869 35.1333 105.349 35.2 104.815 35.2ZM116.466 35.2C115.573 35.2 114.773 35.0333 114.066 34.7C113.359 34.3667 112.799 33.9267 112.386 33.38L113.446 32.46C113.833 32.9267 114.286 33.28 114.806 33.52C115.339 33.76 115.933 33.88 116.586 33.88C116.919 33.88 117.219 33.8467 117.486 33.78C117.753 33.7 117.986 33.5867 118.186 33.44C118.386 33.2933 118.539 33.12 118.646 32.92C118.753 32.72 118.806 32.5 118.806 32.26C118.806 31.82 118.613 31.4533 118.226 31.16C118.053 31.04 117.806 30.92 117.486 30.8C117.166 30.6667 116.779 30.54 116.326 30.42C115.579 30.2067 114.959 29.9933 114.466 29.78C113.973 29.5533 113.586 29.2933 113.306 29C113.106 28.76 112.953 28.5 112.846 28.22C112.753 27.94 112.706 27.6333 112.706 27.3C112.706 26.8733 112.793 26.48 112.966 26.12C113.153 25.76 113.406 25.4467 113.726 25.18C114.059 24.9 114.446 24.6933 114.886 24.56C115.339 24.4133 115.826 24.34 116.346 24.34C116.839 24.34 117.326 24.4067 117.806 24.54C118.286 24.6733 118.733 24.8667 119.146 25.12C119.559 25.3733 119.913 25.6733 120.206 26.02L119.286 27.02C119.033 26.7533 118.753 26.5133 118.446 26.3C118.139 26.0867 117.813 25.92 117.466 25.8C117.133 25.68 116.786 25.62 116.426 25.62C116.106 25.62 115.806 25.66 115.526 25.74C115.259 25.82 115.026 25.9333 114.826 26.08C114.639 26.2133 114.493 26.38 114.386 26.58C114.293 26.78 114.246 27 114.246 27.24C114.246 27.44 114.286 27.62 114.366 27.78C114.446 27.94 114.559 28.08 114.706 28.2C114.893 28.3467 115.153 28.4867 115.486 28.62C115.833 28.74 116.259 28.8667 116.766 29C117.353 29.16 117.846 29.3267 118.246 29.5C118.659 29.66 118.999 29.8533 119.266 30.08C119.626 30.3467 119.879 30.6533 120.026 31C120.186 31.3467 120.266 31.74 120.266 32.18C120.266 32.7667 120.099 33.2867 119.766 33.74C119.446 34.1933 118.999 34.5533 118.426 34.82C117.853 35.0733 117.199 35.2 116.466 35.2ZM127.636 35.2C126.743 35.2 125.943 35.0333 125.236 34.7C124.53 34.3667 123.97 33.9267 123.556 33.38L124.616 32.46C125.003 32.9267 125.456 33.28 125.976 33.52C126.51 33.76 127.103 33.88 127.756 33.88C128.09 33.88 128.39 33.8467 128.656 33.78C128.923 33.7 129.156 33.5867 129.356 33.44C129.556 33.2933 129.71 33.12 129.816 32.92C129.923 32.72 129.976 32.5 129.976 32.26C129.976 31.82 129.783 31.4533 129.396 31.16C129.223 31.04 128.976 30.92 128.656 30.8C128.336 30.6667 127.95 30.54 127.496 30.42C126.75 30.2067 126.13 29.9933 125.636 29.78C125.143 29.5533 124.756 29.2933 124.476 29C124.276 28.76 124.123 28.5 124.016 28.22C123.923 27.94 123.876 27.6333 123.876 27.3C123.876 26.8733 123.963 26.48 124.136 26.12C124.323 25.76 124.576 25.4467 124.896 25.18C125.23 24.9 125.616 24.6933 126.056 24.56C126.51 24.4133 126.996 24.34 127.516 24.34C128.01 24.34 128.496 24.4067 128.976 24.54C129.456 24.6733 129.903 24.8667 130.316 25.12C130.73 25.3733 131.083 25.6733 131.376 26.02L130.456 27.02C130.203 26.7533 129.923 26.5133 129.616 26.3C129.31 26.0867 128.983 25.92 128.636 25.8C128.303 25.68 127.956 25.62 127.596 25.62C127.276 25.62 126.976 25.66 126.696 25.74C126.43 25.82 126.196 25.9333 125.996 26.08C125.81 26.2133 125.663 26.38 125.556 26.58C125.463 26.78 125.416 27 125.416 27.24C125.416 27.44 125.456 27.62 125.536 27.78C125.616 27.94 125.73 28.08 125.876 28.2C126.063 28.3467 126.323 28.4867 126.656 28.62C127.003 28.74 127.43 28.8667 127.936 29C128.523 29.16 129.016 29.3267 129.416 29.5C129.83 29.66 130.17 29.8533 130.436 30.08C130.796 30.3467 131.05 30.6533 131.196 31C131.356 31.3467 131.436 31.74 131.436 32.18C131.436 32.7667 131.27 33.2867 130.936 33.74C130.616 34.1933 130.17 34.5533 129.596 34.82C129.023 35.0733 128.37 35.2 127.636 35.2ZM135.787 35V24.56H137.287V35H135.787ZM136.527 22.3C136.153 22.3 135.867 22.2067 135.667 22.02C135.48 21.82 135.387 21.5533 135.387 21.22C135.387 20.8867 135.487 20.62 135.687 20.42C135.887 20.22 136.167 20.12 136.527 20.12C136.887 20.12 137.167 20.22 137.367 20.42C137.567 20.6067 137.667 20.8733 137.667 21.22C137.667 21.54 137.567 21.8 137.367 22C137.167 22.2 136.887 22.3 136.527 22.3ZM146.782 35.2C145.742 35.2 144.816 34.9667 144.002 34.5C143.202 34.0333 142.569 33.3867 142.102 32.56C141.649 31.7333 141.422 30.7933 141.422 29.74C141.422 28.7 141.649 27.7733 142.102 26.96C142.569 26.1467 143.202 25.5067 144.002 25.04C144.816 24.5733 145.742 24.34 146.782 24.34C147.809 24.34 148.722 24.5733 149.522 25.04C150.336 25.5067 150.969 26.1467 151.422 26.96C151.889 27.7733 152.122 28.7 152.122 29.74C152.122 30.7933 151.889 31.7333 151.422 32.56C150.969 33.3867 150.336 34.0333 149.522 34.5C148.722 34.9667 147.809 35.2 146.782 35.2ZM146.782 33.78C147.516 33.78 148.169 33.6067 148.742 33.26C149.316 32.9 149.762 32.42 150.082 31.82C150.402 31.2067 150.562 30.5133 150.562 29.74C150.562 28.9667 150.402 28.28 150.082 27.68C149.762 27.08 149.316 26.6133 148.742 26.28C148.169 25.9333 147.516 25.76 146.782 25.76C146.049 25.76 145.389 25.9333 144.802 26.28C144.229 26.6133 143.776 27.0867 143.442 27.7C143.122 28.3 142.969 28.98 142.982 29.74C142.969 30.5133 143.122 31.2067 143.442 31.82C143.776 32.42 144.229 32.9 144.802 33.26C145.389 33.6067 146.049 33.78 146.782 33.78ZM155.911 35V24.56H157.391L157.451 26.74L157.211 26.84C157.344 26.3867 157.604 25.9733 157.991 25.6C158.377 25.2267 158.837 24.9267 159.371 24.7C159.917 24.46 160.477 24.34 161.051 24.34C161.824 24.34 162.471 24.4933 162.991 24.8C163.511 25.1067 163.904 25.58 164.171 26.22C164.437 26.86 164.571 27.6733 164.571 28.66V35H163.051V28.74C163.051 28.0467 162.957 27.48 162.771 27.04C162.597 26.5867 162.324 26.2533 161.951 26.04C161.577 25.8267 161.117 25.7267 160.571 25.74C160.117 25.74 159.697 25.82 159.311 25.98C158.924 26.1267 158.591 26.3333 158.311 26.6C158.031 26.8667 157.811 27.1733 157.651 27.52C157.491 27.8667 157.411 28.24 157.411 28.64V35H156.671C156.577 35 156.471 35 156.351 35C156.231 35 156.084 35 155.911 35Z" fill="#8DC27D"/>
</svg>
