<svg width="20" height="20" viewBox="0 0 24 24" fill="none" xmlns="http://www.w3.org/2000/svg">
<path d="M8.78249 21C8.5836 21 8.3847 20.9273 8.22768 20.7716C7.92411 20.4705 7.92411 19.9722 8.22768 19.6711L15.0529 12.9019C15.5554 12.4036 15.5554 11.5938 15.0529 11.0955L8.22768 4.32632C7.92411 4.02523 7.92411 3.52689 8.22768 3.22581C8.53126 2.92473 9.03373 2.92473 9.33731 3.22581L16.1625 9.99495C16.6964 10.5244 17 11.2408 17 11.9987C17 12.7566 16.7069 13.473 16.1625 14.0025L9.33731 20.7716C9.18028 20.9169 8.98139 21 8.78249 21Z" fill="#6b6b6b"/>
</svg>
