<svg width="20" height="20" viewBox="0 0 20 20" fill="none" xmlns="http://www.w3.org/2000/svg">
<path d="M12.7585 12.5167C12.2752 12.5167 11.7502 12.3583 11.2252 12.0333L10.1252 11.3667C10.0752 11.3333 9.92516 11.3333 9.87516 11.3667L8.77516 12.0333C7.87516 12.5833 6.99183 12.6667 6.2835 12.2667C5.59183 11.875 5.2085 11.0917 5.2085 10.0667V4.19167C5.2085 2.15834 6.31683 1.04167 8.3335 1.04167H11.6668C13.6835 1.04167 14.7918 2.15834 14.7918 4.19167V10.0667C14.7918 11.1 14.4085 11.8833 13.7168 12.2667C13.4252 12.4333 13.1002 12.5167 12.7585 12.5167ZM10.0002 10.0917C10.2752 10.0917 10.5502 10.1583 10.7752 10.2917L11.8752 10.9583C12.3668 11.2583 12.8168 11.3333 13.1002 11.175C13.3752 11.0167 13.5335 10.6083 13.5335 10.0583V4.19167C13.5335 2.85834 12.9752 2.29167 11.6585 2.29167H8.32516C7.0085 2.29167 6.45016 2.85834 6.45016 4.19167V10.0667C6.45016 10.6167 6.6085 11.025 6.8835 11.1833C7.16683 11.3417 7.61683 11.2667 8.1085 10.9667L9.2085 10.3C9.45016 10.1583 9.72516 10.0917 10.0002 10.0917Z" fill="#6B6B6B"/>
<path d="M12.4998 18.9583H7.49984C2.97484 18.9583 1.0415 17.0083 1.0415 12.4417V9.91666C1.0415 6.03333 2.4415 4.06666 5.57484 3.54166C5.90817 3.48333 6.23317 3.71666 6.2915 4.05833C6.34984 4.39999 6.1165 4.71666 5.77484 4.77499C3.2665 5.19166 2.28317 6.63333 2.28317 9.91666V12.4417C2.28317 16.2833 3.6915 17.7083 7.4915 17.7083H12.4915C16.2915 17.7083 17.6998 16.2833 17.6998 12.4417V9.91666C17.6998 6.58333 16.6832 5.14166 14.0665 4.74999C13.7248 4.69999 13.4915 4.38333 13.5415 4.04166C13.5915 3.69999 13.9082 3.46666 14.2498 3.51666C17.4998 3.99999 18.9498 5.96666 18.9498 9.91666V12.4417C18.9582 17.0083 17.0248 18.9583 12.4998 18.9583Z" fill="#6B6B6B"/>
</svg>
