<svg width="26" height="26" viewBox="0 0 29 28" fill="none" xmlns="http://www.w3.org/2000/svg">
<path d="M14.5002 26.6116C13.6952 26.6116 12.9368 26.2033 12.4002 25.4916L10.6502 23.1583C10.6152 23.1116 10.4752 23.0533 10.4168 23.0416H9.8335C4.9685 23.0416 1.9585 21.7233 1.9585 15.1666V9.33331C1.9585 4.17665 4.67683 1.45831 9.8335 1.45831H19.1668C24.3235 1.45831 27.0418 4.17665 27.0418 9.33331V15.1666C27.0418 20.3233 24.3235 23.0416 19.1668 23.0416H18.5835C18.4902 23.0416 18.4085 23.0883 18.3502 23.1583L16.6002 25.4916C16.0635 26.2033 15.3052 26.6116 14.5002 26.6116ZM9.8335 3.20831C5.65683 3.20831 3.7085 5.15665 3.7085 9.33331V15.1666C3.7085 20.44 5.51683 21.2916 9.8335 21.2916H10.4168C11.0118 21.2916 11.6885 21.63 12.0502 22.1083L13.8002 24.4416C14.2085 24.9783 14.7918 24.9783 15.2002 24.4416L16.9502 22.1083C17.3352 21.595 17.9418 21.2916 18.5835 21.2916H19.1668C23.3435 21.2916 25.2918 19.3433 25.2918 15.1666V9.33331C25.2918 5.15665 23.3435 3.20831 19.1668 3.20831H9.8335Z" fill="#6B6B6B"/>
<path d="M14.5002 14C13.8468 14 13.3335 13.475 13.3335 12.8334C13.3335 12.1917 13.8585 11.6667 14.5002 11.6667C15.1418 11.6667 15.6668 12.1917 15.6668 12.8334C15.6668 13.475 15.1535 14 14.5002 14Z" fill="#6B6B6B"/>
<path d="M19.1667 14C18.5133 14 18 13.475 18 12.8334C18 12.1917 18.525 11.6667 19.1667 11.6667C19.8083 11.6667 20.3333 12.1917 20.3333 12.8334C20.3333 13.475 19.82 14 19.1667 14Z" fill="#6B6B6B"/>
<path d="M9.83317 14C9.17984 14 8.6665 13.475 8.6665 12.8334C8.6665 12.1917 9.1915 11.6667 9.83317 11.6667C10.4748 11.6667 10.9998 12.1917 10.9998 12.8334C10.9998 13.475 10.4865 14 9.83317 14Z" fill="#6B6B6B"/>
</svg>
