<svg width="32" height="32" viewBox="0 0 32 32" fill="none" xmlns="http://www.w3.org/2000/svg">
<path d="M12.0002 14.3333C9.9735 14.3333 8.3335 12.6933 8.3335 10.6667C8.3335 8.64 9.9735 7 12.0002 7C14.0268 7 15.6668 8.64 15.6668 10.6667C15.6668 12.6933 14.0268 14.3333 12.0002 14.3333ZM12.0002 9C11.0802 9 10.3335 9.74667 10.3335 10.6667C10.3335 11.5867 11.0802 12.3333 12.0002 12.3333C12.9202 12.3333 13.6668 11.5867 13.6668 10.6667C13.6668 9.74667 12.9202 9 12.0002 9Z" fill="#6B6B6B"/>
<path d="M19.9998 30.3333H11.9998C4.75984 30.3333 1.6665 27.24 1.6665 20V12C1.6665 4.75996 4.75984 1.66663 11.9998 1.66663H17.3332C17.8798 1.66663 18.3332 2.11996 18.3332 2.66663C18.3332 3.21329 17.8798 3.66663 17.3332 3.66663H11.9998C5.85317 3.66663 3.6665 5.85329 3.6665 12V20C3.6665 26.1466 5.85317 28.3333 11.9998 28.3333H19.9998C26.1465 28.3333 28.3332 26.1466 28.3332 20V13.3333C28.3332 12.7866 28.7865 12.3333 29.3332 12.3333C29.8798 12.3333 30.3332 12.7866 30.3332 13.3333V20C30.3332 27.24 27.2398 30.3333 19.9998 30.3333Z" fill="#6B6B6B"/>
<path d="M28.3333 7.66663H21C20.4533 7.66663 20 7.21329 20 6.66663C20 6.11996 20.4533 5.66663 21 5.66663H28.3333C28.88 5.66663 29.3333 6.11996 29.3333 6.66663C29.3333 7.21329 28.88 7.66663 28.3333 7.66663Z" fill="#6B6B6B"/>
<path d="M24.6665 11.3333C24.1198 11.3333 23.6665 10.88 23.6665 10.3333V3C23.6665 2.45333 24.1198 2 24.6665 2C25.2132 2 25.6665 2.45333 25.6665 3V10.3333C25.6665 10.88 25.2132 11.3333 24.6665 11.3333Z" fill="#6B6B6B"/>
<path d="M3.56007 26.2667C3.24007 26.2667 2.92007 26.1067 2.7334 25.8267C2.42673 25.3734 2.54673 24.7467 3.00007 24.44L9.5734 20.0267C11.0134 19.0667 13.0001 19.1734 14.3067 20.28L14.7467 20.6667C15.4134 21.24 16.5467 21.24 17.2001 20.6667L22.7467 15.9067C24.1734 14.6934 26.3867 14.6934 27.8134 15.9067L29.9867 17.7734C30.4001 18.1334 30.4534 18.76 30.0934 19.1867C29.7334 19.6 29.1067 19.6534 28.6801 19.2934L26.5067 17.4267C25.8401 16.8534 24.7067 16.8534 24.0534 17.4267L18.5067 22.1867C17.0934 23.4 14.8667 23.4 13.4401 22.1867L13.0001 21.8C12.3867 21.28 11.3734 21.2267 10.6934 21.6934L4.1334 26.1067C3.94673 26.2134 3.74673 26.2667 3.56007 26.2667Z" fill="#6B6B6B"/>
</svg>
