<svg width="32" height="32" viewBox="0 0 32 32" fill="none" xmlns="http://www.w3.org/2000/svg">
<path d="M6.66667 19.6667C4.64 19.6667 3 18.0267 3 16C3 13.9733 4.64 12.3333 6.66667 12.3333C8.69333 12.3333 10.3333 13.9733 10.3333 16C10.3333 18.0267 8.69333 19.6667 6.66667 19.6667ZM6.66667 14.3333C5.74667 14.3333 5 15.08 5 16C5 16.92 5.74667 17.6667 6.66667 17.6667C7.58667 17.6667 8.33333 16.92 8.33333 16C8.33333 15.08 7.58667 14.3333 6.66667 14.3333Z" fill="#6B6B6B"/>
<path d="M6.66667 19.6667C4.64 19.6667 3 18.0267 3 16C3 13.9733 4.64 12.3333 6.66667 12.3333C8.69333 12.3333 10.3333 13.9733 10.3333 16C10.3333 18.0267 8.69333 19.6667 6.66667 19.6667ZM6.66667 14.3333C5.74667 14.3333 5 15.08 5 16C5 16.92 5.74667 17.6667 6.66667 17.6667C7.58667 17.6667 8.33333 16.92 8.33333 16C8.33333 15.08 7.58667 14.3333 6.66667 14.3333Z" fill="white" fill-opacity="0.3"/>
<path d="M25.3332 19.6667C23.3065 19.6667 21.6665 18.0267 21.6665 16C21.6665 13.9733 23.3065 12.3333 25.3332 12.3333C27.3598 12.3333 28.9998 13.9733 28.9998 16C28.9998 18.0267 27.3598 19.6667 25.3332 19.6667ZM25.3332 14.3333C24.4132 14.3333 23.6665 15.08 23.6665 16C23.6665 16.92 24.4132 17.6667 25.3332 17.6667C26.2532 17.6667 26.9998 16.92 26.9998 16C26.9998 15.08 26.2532 14.3333 25.3332 14.3333Z" fill="#6B6B6B"/>
<path d="M25.3332 19.6667C23.3065 19.6667 21.6665 18.0267 21.6665 16C21.6665 13.9733 23.3065 12.3333 25.3332 12.3333C27.3598 12.3333 28.9998 13.9733 28.9998 16C28.9998 18.0267 27.3598 19.6667 25.3332 19.6667ZM25.3332 14.3333C24.4132 14.3333 23.6665 15.08 23.6665 16C23.6665 16.92 24.4132 17.6667 25.3332 17.6667C26.2532 17.6667 26.9998 16.92 26.9998 16C26.9998 15.08 26.2532 14.3333 25.3332 14.3333Z" fill="white" fill-opacity="0.3"/>
<path d="M16.0002 19.6667C13.9735 19.6667 12.3335 18.0267 12.3335 16C12.3335 13.9733 13.9735 12.3333 16.0002 12.3333C18.0268 12.3333 19.6668 13.9733 19.6668 16C19.6668 18.0267 18.0268 19.6667 16.0002 19.6667ZM16.0002 14.3333C15.0802 14.3333 14.3335 15.08 14.3335 16C14.3335 16.92 15.0802 17.6667 16.0002 17.6667C16.9202 17.6667 17.6668 16.92 17.6668 16C17.6668 15.08 16.9202 14.3333 16.0002 14.3333Z" fill="#6B6B6B"/>
<path d="M16.0002 19.6667C13.9735 19.6667 12.3335 18.0267 12.3335 16C12.3335 13.9733 13.9735 12.3333 16.0002 12.3333C18.0268 12.3333 19.6668 13.9733 19.6668 16C19.6668 18.0267 18.0268 19.6667 16.0002 19.6667ZM16.0002 14.3333C15.0802 14.3333 14.3335 15.08 14.3335 16C14.3335 16.92 15.0802 17.6667 16.0002 17.6667C16.9202 17.6667 17.6668 16.92 17.6668 16C17.6668 15.08 16.9202 14.3333 16.0002 14.3333Z" fill="white" fill-opacity="0.3"/>
</svg>
