<svg width="28" height="28" viewBox="0 0 28 28" fill="none" xmlns="http://www.w3.org/2000/svg">
<path d="M14.0235 23.9517C11.3052 23.9517 8.58684 23.52 6.00851 22.6567C5.02851 22.3183 4.28184 21.63 3.95517 20.7317C3.61684 19.8333 3.73351 18.8417 4.27017 17.955L5.61184 15.7267C5.89184 15.26 6.14851 14.3267 6.14851 13.7783V10.4067C6.14851 6.06668 9.68351 2.53168 14.0235 2.53168C18.3635 2.53168 21.8985 6.06668 21.8985 10.4067V13.7783C21.8985 14.315 22.1552 15.26 22.4352 15.7383L23.7652 17.955C24.2668 18.795 24.3602 19.81 24.0218 20.7317C23.6835 21.6533 22.9485 22.3533 22.0268 22.6567C19.4602 23.52 16.7418 23.9517 14.0235 23.9517ZM14.0235 4.28168C10.6518 4.28168 7.89851 7.02334 7.89851 10.4067V13.7783C7.89851 14.63 7.54851 15.89 7.11684 16.625L5.77517 18.8533C5.51851 19.285 5.44851 19.74 5.60017 20.125C5.74017 20.5217 6.09017 20.825 6.56851 20.9883C11.4452 22.6217 16.6135 22.6217 21.4902 20.9883C21.9102 20.8483 22.2368 20.5333 22.3885 20.1133C22.5402 19.6933 22.5052 19.2383 22.2718 18.8533L20.9302 16.625C20.4868 15.8667 20.1485 14.6183 20.1485 13.7667V10.4067C20.1485 7.02334 17.4068 4.28168 14.0235 4.28168Z" fill="#A7A7B1"/>
<path d="M14.0235 23.9517C11.3052 23.9517 8.58684 23.52 6.00851 22.6567C5.02851 22.3183 4.28184 21.63 3.95517 20.7317C3.61684 19.8333 3.73351 18.8417 4.27017 17.955L5.61184 15.7267C5.89184 15.26 6.14851 14.3267 6.14851 13.7783V10.4067C6.14851 6.06668 9.68351 2.53168 14.0235 2.53168C18.3635 2.53168 21.8985 6.06668 21.8985 10.4067V13.7783C21.8985 14.315 22.1552 15.26 22.4352 15.7383L23.7652 17.955C24.2668 18.795 24.3602 19.81 24.0218 20.7317C23.6835 21.6533 22.9485 22.3533 22.0268 22.6567C19.4602 23.52 16.7418 23.9517 14.0235 23.9517ZM14.0235 4.28168C10.6518 4.28168 7.89851 7.02334 7.89851 10.4067V13.7783C7.89851 14.63 7.54851 15.89 7.11684 16.625L5.77517 18.8533C5.51851 19.285 5.44851 19.74 5.60017 20.125C5.74017 20.5217 6.09017 20.825 6.56851 20.9883C11.4452 22.6217 16.6135 22.6217 21.4902 20.9883C21.9102 20.8483 22.2368 20.5333 22.3885 20.1133C22.5402 19.6933 22.5052 19.2383 22.2718 18.8533L20.9302 16.625C20.4868 15.8667 20.1485 14.6183 20.1485 13.7667V10.4067C20.1485 7.02334 17.4068 4.28168 14.0235 4.28168Z" fill="black" fill-opacity="0.45"/>
<path d="M16.1934 4.59668C16.1117 4.59668 16.0301 4.58501 15.9484 4.56168C15.6101 4.46835 15.2834 4.39835 14.9684 4.35168C13.9767 4.22335 13.0201 4.29335 12.1217 4.56168C11.7951 4.66668 11.4451 4.56168 11.2234 4.31668C11.0017 4.07168 10.9317 3.72168 11.0601 3.40668C11.5384 2.18168 12.7051 1.37668 14.0351 1.37668C15.3651 1.37668 16.5317 2.17001 17.0101 3.40668C17.1267 3.72168 17.0684 4.07168 16.8467 4.31668C16.6717 4.50335 16.4267 4.59668 16.1934 4.59668Z" fill="#A7A7B1"/>
<path d="M16.1934 4.59668C16.1117 4.59668 16.0301 4.58501 15.9484 4.56168C15.6101 4.46835 15.2834 4.39835 14.9684 4.35168C13.9767 4.22335 13.0201 4.29335 12.1217 4.56168C11.7951 4.66668 11.4451 4.56168 11.2234 4.31668C11.0017 4.07168 10.9317 3.72168 11.0601 3.40668C11.5384 2.18168 12.7051 1.37668 14.0351 1.37668C15.3651 1.37668 16.5317 2.17001 17.0101 3.40668C17.1267 3.72168 17.0684 4.07168 16.8467 4.31668C16.6717 4.50335 16.4267 4.59668 16.1934 4.59668Z" fill="black" fill-opacity="0.45"/>
<path d="M14.0234 26.6117C12.8684 26.6117 11.7484 26.145 10.9318 25.3283C10.1151 24.5117 9.64844 23.3917 9.64844 22.2367H11.3984C11.3984 22.925 11.6784 23.6017 12.1684 24.0917C12.6584 24.5817 13.3351 24.8617 14.0234 24.8617C15.4701 24.8617 16.6484 23.6833 16.6484 22.2367H18.3984C18.3984 24.6517 16.4384 26.6117 14.0234 26.6117Z" fill="#A7A7B1"/>
<path d="M14.0234 26.6117C12.8684 26.6117 11.7484 26.145 10.9318 25.3283C10.1151 24.5117 9.64844 23.3917 9.64844 22.2367H11.3984C11.3984 22.925 11.6784 23.6017 12.1684 24.0917C12.6584 24.5817 13.3351 24.8617 14.0234 24.8617C15.4701 24.8617 16.6484 23.6833 16.6484 22.2367H18.3984C18.3984 24.6517 16.4384 26.6117 14.0234 26.6117Z" fill="black" fill-opacity="0.45"/>
</svg>
