<svg width="20" height="20" viewBox="0 0 20 20" fill="none" xmlns="http://www.w3.org/2000/svg">
<path d="M10.842 18.75C10.342 18.75 9.56706 18.5083 8.8254 17.2917L7.35872 14.9166C7.21706 14.6833 6.78371 14.4583 6.51705 14.475L3.73369 14.6167C2.06703 14.7 1.48373 14.0083 1.2754 13.5916C1.06707 13.175 0.883696 12.2833 1.96703 11.0167L3.61706 9.1C3.78373 8.9 3.87537 8.46664 3.80037 8.21664L2.9587 5.52499C2.5337 4.17499 3.0087 3.44999 3.32537 3.13333C3.64203 2.81666 4.37537 2.35831 5.72537 2.80831L8.18371 3.61665C8.40871 3.69165 8.82538 3.62499 9.01705 3.49165L11.5837 1.64165C12.7587 0.791653 13.6087 1.01665 14.0004 1.22499C14.392 1.43332 15.0587 2 15.0337 3.45L14.9754 6.60831C14.967 6.84165 15.1587 7.22498 15.342 7.36665L17.4087 8.93332C18.5337 9.79165 18.5754 10.65 18.5004 11.0916C18.4254 11.5333 18.0921 12.3333 16.7421 12.75L14.0504 13.5916C13.8004 13.6666 13.492 13.9916 13.4254 14.2416L12.7837 16.6917C12.3587 18.3 11.5254 18.6583 11.0587 18.725C11.0004 18.7417 10.9254 18.75 10.842 18.75ZM6.54202 13.225C7.25869 13.225 8.05035 13.6583 8.41702 14.2583L9.8837 16.6333C10.3004 17.3166 10.6754 17.525 10.8754 17.4916C11.067 17.4666 11.3671 17.15 11.5754 16.3833L12.217 13.9333C12.392 13.2667 13.017 12.6083 13.6754 12.4083L16.3671 11.5667C16.8837 11.4083 17.217 11.15 17.267 10.8833C17.317 10.6166 17.0837 10.2667 16.6504 9.93333L14.5837 8.36666C14.0754 7.98333 13.7087 7.21665 13.7171 6.58331L13.7754 3.42497C13.7837 2.86664 13.6504 2.44999 13.4087 2.32499C13.1671 2.19999 12.7587 2.32498 12.3004 2.64998L9.7337 4.49998C9.22537 4.86665 8.38372 4.99999 7.77539 4.79999L5.31705 3.99166C4.80038 3.82499 4.38373 3.83331 4.19207 4.02497C4.0004 4.21664 3.98368 4.63331 4.14202 5.14998L4.98369 7.84165C5.19203 8.49999 5.00868 9.39166 4.55868 9.90833L2.9087 11.825C2.3837 12.4333 2.30037 12.8583 2.39204 13.0333C2.47537 13.2083 2.8754 13.4 3.66706 13.3583L6.45037 13.2166C6.4837 13.225 6.51702 13.225 6.54202 13.225Z" fill="#6B6B6B"/>
<path d="M18.2583 18.9583C18.0999 18.9583 17.9416 18.9 17.8166 18.775L15.2916 16.25C15.0499 16.0083 15.0499 15.6083 15.2916 15.3667C15.5333 15.125 15.9333 15.125 16.1749 15.3667L18.7 17.8917C18.9416 18.1333 18.9416 18.5333 18.7 18.775C18.575 18.9 18.4166 18.9583 18.2583 18.9583Z" fill="#6B6B6B"/>
</svg>
