<svg width="20" height="20" viewBox="0 0 25 24" fill="none" xmlns="http://www.w3.org/2000/svg">
<path d="M12 21.75C6.35 21.75 1.75 17.15 1.75 11.5C1.75 5.85 6.35 1.25 12 1.25C17.65 1.25 22.25 5.85 22.25 11.5C22.25 17.15 17.65 21.75 12 21.75ZM12 2.75C7.17 2.75 3.25 6.68 3.25 11.5C3.25 16.32 7.17 20.25 12 20.25C16.83 20.25 20.75 16.32 20.75 11.5C20.75 6.68 16.83 2.75 12 2.75Z" fill="#A7A7B1"/>
<path d="M22.4998 22.75C22.3098 22.75 22.1198 22.68 21.9698 22.53L18.4397 19.06C18.1497 18.77 18.1497 18.29 18.4397 18C18.7297 17.71 19.2097 17.71 19.4997 18L23.0298 21.47C23.3198 21.76 23.3198 22.24 23.0298 22.53C22.8798 22.68 22.6898 22.75 22.4998 22.75Z" fill="#A7A7B1"/>
</svg>
