<svg width="28" height="28" viewBox="0 0 28 28" fill="none" xmlns="http://www.w3.org/2000/svg">
<path d="M16.5902 25.235C15.2135 25.235 13.2652 24.2667 11.7252 19.635L10.8852 17.115L8.36519 16.275C3.74519 14.735 2.77686 12.7867 2.77686 11.41C2.77686 10.045 3.74519 8.08502 8.36519 6.53336L18.2702 3.23169C20.7435 2.40336 22.8085 2.64836 24.0802 3.90836C25.3519 5.16836 25.5969 7.24502 24.7685 9.71836L21.4669 19.6234C19.9152 24.2667 17.9669 25.235 16.5902 25.235ZM8.91352 8.20169C5.67019 9.28669 4.51519 10.57 4.51519 11.41C4.51519 12.25 5.67019 13.5334 8.91352 14.6067L11.8535 15.5867C12.1102 15.6684 12.3202 15.8784 12.4019 16.135L13.3819 19.075C14.4552 22.3184 15.7502 23.4734 16.5902 23.4734C17.4302 23.4734 18.7135 22.3184 19.7985 19.075L23.1002 9.17002C23.6952 7.37336 23.5902 5.90336 22.8319 5.14502C22.0735 4.38669 20.6035 4.29336 18.8185 4.88836L8.91352 8.20169Z" fill="#6B6B6B"/>
<path d="M11.7949 16.8C11.5733 16.8 11.3516 16.7183 11.1766 16.5433C10.8383 16.205 10.8383 15.645 11.1766 15.3066L15.3533 11.1183C15.6916 10.78 16.2516 10.78 16.5899 11.1183C16.9283 11.4566 16.9283 12.0166 16.5899 12.355L12.4133 16.5433C12.2499 16.7183 12.0166 16.8 11.7949 16.8Z" fill="#6B6B6B"/>
</svg>
