<svg width="24" height="24" viewBox="0 0 24 24" fill="none" xmlns="http://www.w3.org/2000/svg">
<path d="M20.9997 6.72998C20.9797 6.72998 20.9497 6.72998 20.9197 6.72998C15.6297 6.19998 10.3497 5.99998 5.11967 6.52998L3.07967 6.72998C2.65967 6.76998 2.28967 6.46998 2.24967 6.04998C2.20967 5.62998 2.50967 5.26998 2.91967 5.22998L4.95967 5.02998C10.2797 4.48998 15.6697 4.69998 21.0697 5.22998C21.4797 5.26998 21.7797 5.63998 21.7397 6.04998C21.7097 6.43998 21.3797 6.72998 20.9997 6.72998Z" fill="#FF4154"/>
<path d="M8.49977 5.72C8.45977 5.72 8.41977 5.72 8.36977 5.71C7.96977 5.64 7.68977 5.25 7.75977 4.85L7.97977 3.54C8.13977 2.58 8.35977 1.25 10.6898 1.25H13.3098C15.6498 1.25 15.8698 2.63 16.0198 3.55L16.2398 4.85C16.3098 5.26 16.0298 5.65 15.6298 5.71C15.2198 5.78 14.8298 5.5 14.7698 5.1L14.5498 3.8C14.4098 2.93 14.3798 2.76 13.3198 2.76H10.6998C9.63977 2.76 9.61977 2.9 9.46977 3.79L9.23977 5.09C9.17977 5.46 8.85977 5.72 8.49977 5.72Z" fill="#FF4154"/>
<path d="M15.21 22.7501H8.79C5.3 22.7501 5.16 20.8201 5.05 19.2601L4 6.00013C3.97 5.59013 4.29 5.23013 4.7 5.20013C5.12 5.18013 5.47 5.49013 5.5 5.90013L6.55 19.1601C6.66 20.6801 6.7 21.2501 8.79 21.2501H15.21C17.31 21.2501 17.35 20.6801 17.45 19.1601L18.15 6.20012C18.18 5.79012 18.54 5.48012 18.95 5.50012C19.36 5.53012 19.68 5.88012 19.65 6.30012L18.95 19.2601C18.84 20.8201 18.7 22.7501 15.21 22.7501Z" fill="#FF4154"/>
<path d="M13.6601 17.25H10.3301C9.92008 17.25 9.58008 16.91 9.58008 16.5C9.58008 16.09 9.92008 15.75 10.3301 15.75H13.6601C14.0701 15.75 14.4101 16.09 14.4101 16.5C14.4101 16.91 14.0701 17.25 13.6601 17.25Z" fill="#FF4154"/>
</svg>
