<svg width="36" height="36" viewBox="0 0 36 36" fill="none" xmlns="http://www.w3.org/2000/svg">
<path d="M18.1802 20.295C18.1502 20.295 18.1052 20.295 18.0752 20.295C18.0302 20.295 17.9702 20.295 17.9252 20.295C14.5202 20.19 11.9702 17.535 11.9702 14.265C11.9702 10.935 14.6852 8.21997 18.0152 8.21997C21.3452 8.21997 24.0602 10.935 24.0602 14.265C24.0452 17.55 21.4802 20.19 18.2252 20.295C18.1952 20.295 18.1952 20.295 18.1802 20.295ZM18.0002 10.455C15.9002 10.455 14.2052 12.165 14.2052 14.25C14.2052 16.305 15.8102 17.97 17.8502 18.045C17.8952 18.03 18.0452 18.03 18.1952 18.045C20.2052 17.94 21.7802 16.29 21.7952 14.25C21.7952 12.165 20.1002 10.455 18.0002 10.455Z" fill="#A7A7B1"/>
<path d="M18.1802 20.295C18.1502 20.295 18.1052 20.295 18.0752 20.295C18.0302 20.295 17.9702 20.295 17.9252 20.295C14.5202 20.19 11.9702 17.535 11.9702 14.265C11.9702 10.935 14.6852 8.21997 18.0152 8.21997C21.3452 8.21997 24.0602 10.935 24.0602 14.265C24.0452 17.55 21.4802 20.19 18.2252 20.295C18.1952 20.295 18.1952 20.295 18.1802 20.295ZM18.0002 10.455C15.9002 10.455 14.2052 12.165 14.2052 14.25C14.2052 16.305 15.8102 17.97 17.8502 18.045C17.8952 18.03 18.0452 18.03 18.1952 18.045C20.2052 17.94 21.7802 16.29 21.7952 14.25C21.7952 12.165 20.1002 10.455 18.0002 10.455Z" fill="black" fill-opacity="0.5"/>
<path d="M18.0002 34.125C13.9652 34.125 10.1102 32.625 7.12524 29.895C6.85524 29.655 6.73524 29.295 6.76524 28.95C6.96024 27.165 8.07024 25.5 9.91524 24.27C14.3852 21.3 21.6302 21.3 26.0852 24.27C27.9302 25.515 29.0402 27.165 29.2352 28.95C29.2802 29.31 29.1452 29.655 28.8752 29.895C25.8902 32.625 22.0352 34.125 18.0002 34.125ZM9.12024 28.65C11.6102 30.735 14.7452 31.875 18.0002 31.875C21.2552 31.875 24.3902 30.735 26.8802 28.65C26.6102 27.735 25.8902 26.85 24.8252 26.13C21.1352 23.67 14.8802 23.67 11.1602 26.13C10.0952 26.85 9.39024 27.735 9.12024 28.65Z" fill="#A7A7B1"/>
<path d="M18.0002 34.125C13.9652 34.125 10.1102 32.625 7.12524 29.895C6.85524 29.655 6.73524 29.295 6.76524 28.95C6.96024 27.165 8.07024 25.5 9.91524 24.27C14.3852 21.3 21.6302 21.3 26.0852 24.27C27.9302 25.515 29.0402 27.165 29.2352 28.95C29.2802 29.31 29.1452 29.655 28.8752 29.895C25.8902 32.625 22.0352 34.125 18.0002 34.125ZM9.12024 28.65C11.6102 30.735 14.7452 31.875 18.0002 31.875C21.2552 31.875 24.3902 30.735 26.8802 28.65C26.6102 27.735 25.8902 26.85 24.8252 26.13C21.1352 23.67 14.8802 23.67 11.1602 26.13C10.0952 26.85 9.39024 27.735 9.12024 28.65Z" fill="black" fill-opacity="0.5"/>
<path d="M18 34.125C9.105 34.125 1.875 26.895 1.875 18C1.875 9.105 9.105 1.875 18 1.875C26.895 1.875 34.125 9.105 34.125 18C34.125 26.895 26.895 34.125 18 34.125ZM18 4.125C10.35 4.125 4.125 10.35 4.125 18C4.125 25.65 10.35 31.875 18 31.875C25.65 31.875 31.875 25.65 31.875 18C31.875 10.35 25.65 4.125 18 4.125Z" fill="#A7A7B1"/>
<path d="M18 34.125C9.105 34.125 1.875 26.895 1.875 18C1.875 9.105 9.105 1.875 18 1.875C26.895 1.875 34.125 9.105 34.125 18C34.125 26.895 26.895 34.125 18 34.125ZM18 4.125C10.35 4.125 4.125 10.35 4.125 18C4.125 25.65 10.35 31.875 18 31.875C25.65 31.875 31.875 25.65 31.875 18C31.875 10.35 25.65 4.125 18 4.125Z" fill="black" fill-opacity="0.5"/>
</svg>
