<svg width="32" height="32" viewBox="0 0 32 32" fill="none" xmlns="http://www.w3.org/2000/svg">
<path d="M19.6668 25.3333C19.6668 27.36 18.0268 29 16.0002 29C13.9735 29 12.3335 27.36 12.3335 25.3333C12.3335 23.3067 13.9735 21.6667 16.0002 21.6667C18.0268 21.6667 19.6668 23.3067 19.6668 25.3333ZM14.3335 25.3333C14.3335 26.2533 15.0802 27 16.0002 27C16.9202 27 17.6668 26.2533 17.6668 25.3333C17.6668 24.4133 16.9202 23.6667 16.0002 23.6667C15.0802 23.6667 14.3335 24.4133 14.3335 25.3333Z" fill="#6B6B6B"/>
<path d="M19.6668 25.3333C19.6668 27.36 18.0268 29 16.0002 29C13.9735 29 12.3335 27.36 12.3335 25.3333C12.3335 23.3067 13.9735 21.6667 16.0002 21.6667C18.0268 21.6667 19.6668 23.3067 19.6668 25.3333ZM14.3335 25.3333C14.3335 26.2533 15.0802 27 16.0002 27C16.9202 27 17.6668 26.2533 17.6668 25.3333C17.6668 24.4133 16.9202 23.6667 16.0002 23.6667C15.0802 23.6667 14.3335 24.4133 14.3335 25.3333Z" fill="white" fill-opacity="0.3"/>
<path d="M19.6668 6.66666C19.6668 8.69333 18.0268 10.3333 16.0002 10.3333C13.9735 10.3333 12.3335 8.69333 12.3335 6.66666C12.3335 4.64 13.9735 3 16.0002 3C18.0268 3 19.6668 4.64 19.6668 6.66666ZM14.3335 6.66666C14.3335 7.58666 15.0802 8.33333 16.0002 8.33333C16.9202 8.33333 17.6668 7.58666 17.6668 6.66666C17.6668 5.74666 16.9202 5 16.0002 5C15.0802 5 14.3335 5.74666 14.3335 6.66666Z" fill="#6B6B6B"/>
<path d="M19.6668 6.66666C19.6668 8.69333 18.0268 10.3333 16.0002 10.3333C13.9735 10.3333 12.3335 8.69333 12.3335 6.66666C12.3335 4.64 13.9735 3 16.0002 3C18.0268 3 19.6668 4.64 19.6668 6.66666ZM14.3335 6.66666C14.3335 7.58666 15.0802 8.33333 16.0002 8.33333C16.9202 8.33333 17.6668 7.58666 17.6668 6.66666C17.6668 5.74666 16.9202 5 16.0002 5C15.0802 5 14.3335 5.74666 14.3335 6.66666Z" fill="white" fill-opacity="0.3"/>
<path d="M19.6668 16C19.6668 18.0267 18.0268 19.6667 16.0002 19.6667C13.9735 19.6667 12.3335 18.0267 12.3335 16C12.3335 13.9733 13.9735 12.3333 16.0002 12.3333C18.0268 12.3333 19.6668 13.9733 19.6668 16ZM14.3335 16C14.3335 16.92 15.0802 17.6667 16.0002 17.6667C16.9202 17.6667 17.6668 16.92 17.6668 16C17.6668 15.08 16.9202 14.3333 16.0002 14.3333C15.0802 14.3333 14.3335 15.08 14.3335 16Z" fill="#6B6B6B"/>
<path d="M19.6668 16C19.6668 18.0267 18.0268 19.6667 16.0002 19.6667C13.9735 19.6667 12.3335 18.0267 12.3335 16C12.3335 13.9733 13.9735 12.3333 16.0002 12.3333C18.0268 12.3333 19.6668 13.9733 19.6668 16ZM14.3335 16C14.3335 16.92 15.0802 17.6667 16.0002 17.6667C16.9202 17.6667 17.6668 16.92 17.6668 16C17.6668 15.08 16.9202 14.3333 16.0002 14.3333C15.0802 14.3333 14.3335 15.08 14.3335 16Z" fill="white" fill-opacity="0.3"/>
</svg>
