<svg width="32" height="32" viewBox="0 0 32 32" fill="none" xmlns="http://www.w3.org/2000/svg">
<path d="M16 25C14.1067 25 12.3733 23.8 11.12 21.6267L7.56001 15.4533C6.29334 13.28 6.13334 11.1867 7.08001 9.54667C8.02667 7.90667 9.93334 7 12.44 7H19.56C22.0667 7 23.9733 7.90667 24.92 9.54667C25.8667 11.1867 25.6933 13.2933 24.44 15.4667L20.88 21.64C19.6267 23.8 17.8933 25 16 25ZM12.44 9C10.6667 9 9.38667 9.54667 8.81334 10.5467C8.22667 11.5467 8.40001 12.9333 9.28001 14.4533L12.84 20.6267C13.72 22.16 14.84 23 15.9867 23C17.1333 23 18.2533 22.16 19.1333 20.6267L22.6933 14.4533C23.5733 12.92 23.7467 11.5333 23.1733 10.5333C22.6 9.53333 21.3067 8.98667 19.5467 8.98667H12.44V9Z" fill="#6B6B6B"/>
</svg>
